<svg xmlns="http://www.w3.org/2000/svg" viewBox="0 0 512 512">
  <defs>
    <linearGradient id="bg" x1="0" y1="0" x2="1" y2="1"><stop offset="0%" stop-color="#1a1a2e"/><stop offset="100%" stop-color="#0f0f1e"/></linearGradient>
    <linearGradient id="gold" x1="0" y1="0" x2="0" y2="1"><stop offset="0%" stop-color="#ffd700"/><stop offset="100%" stop-color="#e8a317"/></linearGradient>
    <linearGradient id="pulse" x1="0" y1="0" x2="1" y2="0"><stop offset="0%" stop-color="#f5c542" stop-opacity="0.2"/><stop offset="40%" stop-color="#ffd700"/><stop offset="60%" stop-color="#ffd700"/><stop offset="100%" stop-color="#f5c542" stop-opacity="0.2"/></linearGradient>
  </defs>
  <rect width="512" height="512" rx="108" fill="url(#bg)"/>
  <!-- Heart shape -->
  <path d="M256 360 C180 300, 100 250, 100 185 C100 130, 140 90, 185 90 C215 90, 240 108, 256 135 C272 108, 297 90, 327 90 C372 90, 412 130, 412 185 C412 250, 332 300, 256 360Z" fill="url(#gold)" opacity="0.12" stroke="url(#gold)" stroke-width="7"/>
  <!-- Medical cross inside heart -->
  <rect x="237" y="165" width="38" height="110" rx="8" fill="url(#gold)"/>
  <rect x="201" y="201" width="110" height="38" rx="8" fill="url(#gold)"/>
  <!-- EKG line -->
  <polyline points="55,395 130,395 158,395 172,378 186,415 200,358 214,432 228,385 242,395 290,395 340,395 354,378 368,415 382,395 457,395" fill="none" stroke="url(#pulse)" stroke-width="4.5" stroke-linecap="round" stroke-linejoin="round"/>
  <text x="256" y="475" text-anchor="middle" font-family="system-ui,-apple-system,sans-serif" font-weight="800" font-size="56" fill="url(#gold)" letter-spacing="4">MedAT</text>
</svg>
